<?xml version="1.0" encoding="utf-8"?>
<!-- Generator: Adobe Illustrator 25.2.1, SVG Export Plug-In . SVG Version: 6.00 Build 0)  -->
<svg version="1.1" id="Layer_1" xmlns="http://www.w3.org/2000/svg" xmlns:xlink="http://www.w3.org/1999/xlink" x="0px" y="0px"
	 viewBox="0 0 1530 205.1" style="enable-background:new 0 0 1530 205.1;" xml:space="preserve">
<image style="overflow:visible;" width="1030" height="848" xlink:href="chuangxian-small.png"  transform="matrix(0.1257 0 0 0.1257 0 98.527)">
</image>
<g transform="translate(0.000000,158.000000) scale(0.100000,-0.100000)">
	<path d="M13948,1017.5c-34-37-49-68-42-87c8-21,24-20,24,2c0,9,10,28,21,42l20,25l-5-45c-3-25-5-55-5-68c-1-26-50-52-98-52
		c-37,0-15-16,45-31c23-6,42-15,42-19c0-9-74-40-95-40c-8,0-15-9-15-20c0-22,23-26,64-10c25,9,26,8,24-21c-2-28-18-54-18-30
		c0,7-8,7-25-1c-14-6-25-18-25-27c0-13-2-13-9-2c-7,10-12,8-24-9c-11-15-16-18-20-8c-4,11-6,11-6,0c-1-7-5-10-11-7c-5,3-10-1-10-9
		c0-9-3-16-7-17c-12-1-35-7-70-17c-17-6-34-8-37-5c-12,12-17-28-6-42c20-24,75-17,152,20l73,35l-35-30c-19-17-28-30-21-30
		c11,0,10-4-2-18c-10-10-14-22-10-25c3-4,1-7-6-7s-12-10-11-22c1-13,1-25,0-28c-7-20-12-49-11-70c0-14,0-40,1-59c1-47,16-71,45-71
		c14,0,25,5,25,10c0,6,6,10,14,10s18,5,21,11c10,15-5,100-16,94c-10-7-13,48-2,59c4,3,8,14,9,23c2,9,10,20,18,25c9,5,16,16,16,23
		c0,17,26,20,35,5c4-6,2-17-4-24s-7-17-3-21c4-5,2-5-4-2c-17,10-37-20-31-45c4-13,20-39,37-58s28-29,24-21c-6,11-1,13,22,8
		c24-4,33-1,43,16l14,21l8-23c15-38-6-104-25-80c-13,17-36,23-36,9c0-5-8-6-17-3c-16,6,42-78,60-85c4-2,5-7,2-12c-2-4,17-3,43,1
		c51,10,87,42,76,68c-3,9-8,97-11,196c-2,99-6,185-8,192c-6,18-75,28-98,14c-10-7-21-10-25-7c-14,15,80,38,161,41c49,2,93,7,98,12
		c14,14-1,50-26,61c-18,8-47,7-112-4c-48-9-91-18-97-21c-5-3-6-1-2,6c4,6,20,18,37,26c55,29,22,84-42,71c-44-8-35,1,31,34
		c63,32,68,47,25,70c-19,10-30,11-50,2c-36-17-35-18-35,39c0,49-13,89-28,89C13977,1044.5,13962,1032.5,13948,1017.5z"/>
	<path d="M12756,1027.5c-3-4-1-12,5-19c14-17,3-64-14-64c-14,0-58-65-50-74c3-3,12,2,19,12c10,12,13,13,14,3c0-10,3-11,14-2
		c8,6,40,16,72,21s64,16,72,24c22,22,7,72-26,84C12827,1025.5,12763,1034.5,12756,1027.5z"/>
	<path d="M1727,967.5c-20-32-53-76-74-99c-43-47-93-105-151-180c-23-29-52-54-66-58c-19-5-26-13-26-30c0-24,28-56,48-56
		c7,0,12-4,12-10c0-21,33-8,65,25l33,35l21-35c26-44,27-74,10-187c-9-67-10-93-1-113c17-37,60-33,110,9c69,57,142,130,142,142
		c0,6,7,17,15,24c17,14,21,45,5,35c-5-3-10,1-10,9s5,18,10,21c6,4,8,11,5,16c-11,18-21,9-23-22c-1-17-10-38-19-47c-14-15-15-14-9,6
		c3,12,9,32,12,45c5,22,5,22-14-2c-11-13-24-21-31-17c-7,5-11-1-11-14s-8-24-19-27s-21-13-24-24c-3-10-14-19-24-19s-25-6-32-12
		c-11-11-12-4-6,37c4,28,7,56,8,62c1,19,34,46,47,38c5-3,8-11,5-16c-4-5,1-9,9-9c17,0,72,56,112,115c35,52,45,60,79,63
		c29,2,29,2,11-13c-17-13-18-15-3-15c14,0,17-11,17-68c0-55,4-72,19-86c12-11,25-15,33-10c7,5,20,9,28,9c16,0,16,6,5,100
		c-8,61-29,110-45,100c-4-3-10-1-12,4s-18,4-38-3c-34-11-35-10-45,18c-15,44-55,54-102,24c-21-12-41-22-45-21c-4,2-16-9-27-24
		c-12-14-21-20-21-13s-7,10-15,6c-17-6-19,2-5,24c6,11,5,17-5,20c-12,4-10,11,10,33c14,15,23,27,20,27s-1,9,5,20s18,20,26,20
		s12-4,9-10c-3-5,6-12,20-16c14-3,25-11,25-18c0-15,109-13,138,3c26,14,27,20,4,47c-23,28-49,35-117,35c-30,0-55,1-55,2s5,29,10,62
		c10,59,6,95-9,95C1766,1024.5,1747,998.5,1727,967.5z"/>
	<path d="M2094,998.5c-21-14-45-33-52-42c-7-10-17-18-22-18c-23-3-24-5-10-14c13-8,12-10-3-10c-10,0-15-5-12-10c4-6,1-19-7-28
		c-12-15-11-16,5-3c22,18,32,9,18-17c-19-36-12-32,40,23c28,30,56,52,61,49s8-105,7-234c-1-126-5-227-8-225s-4-29-3-67
		c2-39,1-86-3-105c-6-33-7-34-53-32c-26,0-60,6-75,11c-34,13-47,3-21-17c18-15,18-15-6-13c-21,3-24,8-22,31c3,19-1,27-13,27
		s-14-4-6-19c6-10,8-21,5-24c-14-14,154-102,216-112c51-9,67,4,75,58c3,23,7,212,8,419l2,377l-23,11
		C2157,1030.5,2136,1026.5,2094,998.5z"/>
	<path d="M6885,1014.5c-4-6-10-8-15-5s-22-9-38-27c-30-31-31-31-56-15c-14,9-41,17-61,17c-34,0-36-1-33-35c2-27-5-42-27-66
		c-17-17-40-35-52-40c-13-5-23-17-23-27c0-11-13-25-34-34c-48-23-61-97-15-85c11,3,19,0,19-6s17,8,38,30c47,52,76,59,77,20
		c1-16-3-31-7-33c-24-15,8-129,39-141c19-7,16-23-4-24c-15,0-15-2,2-9c18-7,18-9-10-20c-16-6-63-25-103-41c-41-16-86-29-101-29
		c-47,0-33-28,26-50c30-11,62-20,72-20s58,20,107,45c104,53,124,56,124,18c1-83,21-236,34-260l14-28l12,29c15,40,27,136,29,234
		c1,68,21,88,96,97c51,7,62,4,116-24c73-38,95-40,102-5c7,41-2,62-40,85c-39,24-105,28-131,7c-9-7-13-8-9-2c4,7-2,12-18,12
		c-13,0-26-7-30-16c-5-13-7-13-19,3c-8,11-20,16-30,12s-16-1-16,7c0,14,15,22,123,70c54,24,57,27,57,61c0,32-4,38-34,50
		c-23,10-50,13-80,9c-41-6-46-5-46,13c0,33,24,54,69,60c50,7,58,20,36,62c-16,33-50,42-73,19c-9-9-12-5-12,19
		C6960,994.5,6902,1042.5,6885,1014.5z M6856,844.5c23,0,24-3,24-58c0-37,6-66,16-80c17-25,11-43-8-24c-20,20-65,14-95-13
		c-21-19-24-24-11-25c35,0,32-50-3-50c-27,0-24-28,4-32c20-3,19-5-12-21c-42-21-63-22-36-1c11,9,16,18,10,20c-12,5-11,154,1,163
		c13,9,11,34-3,49c-25,26-15,50,25,62c20,7,41,17,47,22s11,5,13-2C6830,849.5,6843,844.5,6856,844.5z"/>
	<path d="M9904,1003.5c-9-10-18-31-20-45c-1-15-8-30-14-34c-7-4-10-14-8-21c4-9,9-6,17,12c15,30,51,57,51,37c-1-7-9-29-20-48
		c-10-19-29-54-40-77c-12-24-26-43-31-43s-9-5-9-10c0-15,50-33,85-31l30,3l-25-29c-14-15-27-31-30-35c-12-17-183-39-196-25
		c-3,3-1,14,4,24c13,25,5,43-25,54c-22,8-23,11-12,26c8,9,38,27,67,39c61,28,66,48,26,101c-29,38-80,47-91,16c-4-10-38-52-76-93
		c-87-95-95-111-72-146c15-24,21-26,58-20c23,4,46,11,52,17c14,14,25,11,19-6c-4-8-10-12-15-9c-6,3-8-6-5-20c5-27-8-36-18-13
		c-5,10-7,10-12,0c-3-7-13-13-22-13c-15,0-15-2-2-10c8-5,11-10,5-10c-17,0-85-66-85-82c0-19,32-48,52-48c8,0,20,12,26,26
		c14,30,55,30,60,0c3-14,0-17-13-13c-13,5-15,3-10-12c3-11-1-25-10-34c-8-9-15-22-15-29c0-20-20-37-36-31c-10,3-12,0-8-10
		c6-18-8-49-42-90c-31-36-30-53,1-73c39-25,68-6,105,66c28,55,29,65,7,61c-5-1,9,31,29,70c28,53,46,75,71,87c18,9,33,20,33,24
		c0,5,4,6,10,3c5-3,19-1,30,5c34,18,24-8-12-31c-32-20-32-21-6-15c27,6,27,6,16-21c-7-16-15-32-19-38c-3-5-9-30-13-55
		c-6-45,14-101,48-136c26-26,82-21,89,8c6,23-37,86-60,87c-16,1-27,62-20,119c3,32,12,52,29,65c12,10,40,35,62,55l39,35l95-11
		c78-9,99-15,112-32c11-15,28-21,60-23l45-2l2,46l2,47l-56,21c-30,12-62,21-71,21c-8,0-44,5-78,11l-63,11l20,49c10,28,19,74,19,104
		c0,48-2,54-22,57s-23,8-20,42c2,22,1,49-2,62C9968,1019.5,9926,1027.5,9904,1003.5z"/>
	<path d="M10648,1013.5c-22-12-24-59-3-59c24,0,18-31-12-63c-16-17-22-27-15-23c6,4,12,5,12,1c0-3-20-14-45-25c-41-18-65-47-65-81
		c0-12,42-12,74,1c34,13,33-1-3-27c-27-21-46-68-31-78c15-9,107,94,116,131c8,30,33,44,82,48c29,1,39-3,48-19c8-14,8-24,0-34
		c-9-11-7-13,11-7c12,4,24,2,28-4c9-15,55-12,61,4c10,26-15,55-57,66c-33,9-40,15-37,33c2,16-5,26-27,37c-21,11-31,25-36,50
		C10738,1017.5,10692,1039.5,10648,1013.5z"/>
	<path d="M11916,1016.5c-23-5-53-32-36-32c6,0,9-4,6-9c-4-5,2-7,12-4c10,2,24-3,32-11c11-14,10-19-4-34c-9-10-16-24-16-30
		s-7-15-15-20c-9-4-17-18-18-30s-5-22-10-22c-4,0-20-11-35-25c-21-20-23-25-9-25c20,0,21-6,7-23c-6-7-18-21-26-32c-9-11-13-14-9-7
		c3,6-11,2-31-10c-37-22-37-22-13-28l24-6l-22-12c-13-7-23-11-23-9c0,3-17-1-37-8c-23-8-37-20-37-29c1-8-4-12-11-9c-11,4-10,13,2,48
		c8,24,21,49,29,56c17,14,18,61,2,77s-76,15-91,0c-7-7-18-25-26-40s-18-25-23-22c-4,3-26-13-49-35c-22-23-44-41-48-41
		c-9,0,4,74,16,93c3,6,1,7-4,4c-6-4-18-35-28-70c-19-70-13-97,26-117c26-15,51-6,69,25c14,22,15,10,15-150c1-156,3-176,19-194
		c11-12,30-21,43-21c20,0,30,13,62,83c50,109,55,124,38,124c-9,0-12-7-9-19c2-10-1-18-7-18s-11,4-11,10c0,17,24,105,31,110
		c8,7,21,59,21,88c0,13,6,22,16,22c8,0,23,7,33,16c15,14,20,14,32,3c7-8,12-20,9-27c-2-6,3-12,12-12c18,0,21-27,6-50
		c-8-12-10-10-10,8c0,21-2,22-15,8c-11-11-15-32-14-68c1-29-1-83-6-120c-7-60-5-70,15-103c35-56,86-75,190-71c144,6,252,62,270,141
		c13,54,12,98,0,90c-6-4-10,5-10,20c0,18-4,24-12,19c-9-5-9-2,1,9c12,16,9,21-12,18c-4-1-10,6-13,14c-12,29-22,15-13-17
		c11-40,11-60-1-33c-5,11-9,14-9,8c-1-7-8-13-16-13s-15-5-15-11c0-7-7-17-15-23c-9-6-17-23-18-36c0-14-8-30-17-37c-10-8-11-12-2-13
		c6,0,12-5,12-10c0-6-11-3-24,5c-14,10-27,12-30,6c-6-10-101-27-126-23c-78,13-96,33-85,95c6,29,14,37,63,60c31,14,74,44,96,66
		c34,35,38,43,32,74c-8,44-23,57-59,50c-18-4-29-13-33-29c-4-15-14-24-25-24c-13,0-17-5-12-17c4-11,3-14-5-9c-7,4-12,16-12,27
		c0,20-35,40-56,32c-28-10-23,22,11,72c37,57,46,62,89,45c32-12,33-23,3-39c-13-7-24-18-24-25c0-10,9-9,41,2s52,11,95,3
		c75-15,89-14,101,9c11,21-1,83-20,103c-11,13-118,18-163,7c-23-5-43-8-44-6c-2,2,10,29,27,62c16,32,30,68,30,80
		C11990,985.5,11948,1023.5,11916,1016.5z"/>
	<path d="M14734,1013.5c-4-7,4-20,17-31l24-18l-30-26c-16-13-42-27-57-31c-15-3-26-10-25-16s-16-19-38-30c-46-22-95-65-95-84
		c0-7-4-13-9-13c-10,0-21,34-21,68c0,20-3,21-20,12c-14-8-20-21-20-46c0-86,86-164,153-138c23,9,8,40-29,60c-19,10-34,21-34,24
		s31,22,70,43c38,21,72,42,75,47c6,9,126,50,148,50c5,0,2-9-7-19c-10-11-15-24-12-29c3-6-8-15-24-21c-28-9-42,0-20,14
		c13,8,13,25,0,25c-17,0-67-54-63-67c4-12-8-17-29-14c-4,0-16-10-26-24c-11-13-23-21-28-17s-2-1,5-10c7-10,25-18,38-18
		c21,0,23-2,13-15c-18-21-6-45,19-38c37,10,22-7-24-27c-27-12-45-26-45-36c0-17,7-16,70,2c22,6,19,1-19-39c-54-57-141-97-215-100
		c-30-1-58-6-62-10c-9-9,30-39,63-49c31-9,152,39,213,84l48,35l-19-53c-22-61-23-87-9-115c11-19,11-20-32-23c-7-1-12,5-10,12
		c2,10-2,10-16,3c-29-16-45-39-38-57c5-14,16-16,69-10c56,5,60,5,36-8c-51-26-118-48-170-55l-54-6l67-17c51-13,75-14,103-7
		c78,22,122,47,144,83c20,32,27,36,64,36c24,0,56,8,74,19c29,18,32,24,38,96c12,123-14,180-88,192c-27,4-46,0-73-17
		c-48-27-26,1,23,31l34,21l82-53c143-92,160-99,254-99c75,0,83,2,83,19c0,31-27,44-118,57c-66,10-106,23-169,56l-83,42l27,15l27,14
		l-22,17c-12,10-22,28-22,39c0,14-6,21-20,21c-34,0-22,27,15,34c26,5,33,11,28,23c-6,14,1,15,50,10c31-3,64-12,72-21
		c23-22,85-32,96-15c13,21,11,26-18,59c-21,23-46,36-102,51c-41,10-87,19-102,19c-40,0-59,10-70,36
		C14871,1008.5,14755,1047.5,14734,1013.5z"/>
	<path d="M2616,998.5c-20-20-20-22,2-20c15,1,18-14,23-145c5-117,10-153,25-178c21-36,36-39,63-12c16,16,18,26,12,49
		c-5,16-9,58-10,93c-1,116-12,186-32,208C2676,1018.5,2638,1020.5,2616,998.5z"/>
	<path d="M3609,977.5c-50-54-59-67-69-103c-9-31-7-30,54,29c36,33,69,61,75,61c16,0,23-18,9-26c-8-5-6-9,7-14c18-6,18-8-3-26
		c-22-19-31-51-11-38c6,3,3-6-7-22c-14-21-15-26-4-20c12,7,13,6,3-5c-7-7-13-21-13-31c0-11-7-18-20-18c-29,0-47-20-42-47
		c3-17-2-25-19-33c-13-6-40-20-59-30c-19-11-43-19-52-20c-10,0-18-4-18-9c0-21,34-33,97-36c37-1,69-5,71-9c5-14,1-27-7-22
		c-10,7-71-77-71-99c0-9-7-29-15-46c-33-62,34-95,89-44c33,31,36,31,36,2c0-13,4-27,9-33c5-5,5-18,1-29c-7-20-7-20-14,2
		c-4,11-14,24-23,27c-13,5-14,1-9-24c7-38,50-96,76-103c32-8,42,17,39,95l-4,73l27-3c20-2,32,5,48,28l22,31l14-27c8-14,14-34,14-44
		c0-42,80-69,98-32c5,9,10,40,12,67c1,28,3,61,4,75c2,40-18,38-28-2c-5-21-15-38-22-38c-16,0-39,80-28,96c5,7,35,51,67,98
		c31,48,74,104,94,127c32,35,35,44,27,67c-11,30-61,44-75,20c-5-7-13-13-19-13s-14-5-18-11c-4-5-24-20-45-33c-28-17-47-22-72-18
		c-32,5-33,4-22-14c14-22-2-56-25-51c-10,3-10,1-1-9c10-10,16-9,32,5c14,12,21,14,26,6c4-7,22-10,41-8c37,4,51-12,35-40
		c-9-15-11-14-20,8c-8,21-10,22-11,5c0-11-7-29-16-40c-13-17-16-18-24-5c-7,11-10,11-10,2c0-8-13-3-34,13c-31,24-35,24-50,10
		c-21-21-20-24,3-18c16,4,22-3,31-37c6-24,9-53,6-66c-3-12-2-26,4-29c15-9,12-25-5-25c-8,0-15-8-15-17c0-15-2-16-9-3c-6,8-7,18-5,22
		c9,14-7,9-32-11c-13-10-20-22-16-26c4-5,1-5-5-1c-16,9-17,48-1,64c9,9,9,12,0,12c-17,0-15,80,3,124s15,84-8,101c-16,12-16,19,3,111
		c26,128,25,131-10,149C3658,1021.5,3648,1018.5,3609,977.5z"/>
	<path d="M2946,967.5l-59-36l-21,26c-24,30-42,33-69,12c-18-13-17-14,5-17c12-2,24-10,25-18c10-78,15-90,35-90c11,0,33,11,50,25
		c16,14,35,25,42,25c9,0,12-9,8-25c-2-14-11-25-18-25c-8,0-14-6-14-14c0-10-25-20-79-33c-44-9-77-21-75-25c3-5-2-8-10-8
		c-9,0-16-5-16-10c0-12,49-92,61-100c14-10-26-37-49-33c-12,1-22-2-22-7c0-6,5-10,10-10c23,0,7-32-22-45c-42-17-47-11-18,20
		c25,27,21,32-11,15c-10-6-19-17-19-25s-4-15-9-15c-20,0-49-142-33-166c9-14,47-34,64-34s58,82,58,115c0,14,4,25,9,25
		c18,0-2-86-32-133c-43-70-96-102-166-102c-31,0-67,4-81,8c-20,7-16-1,23-38c47-46,49-47,95-40c69,10,160,62,193,110
		c59,85,55,81,78,67c45-27,112,50,110,128c-1,56-21,135-34,135c-5,0-15,3-20,7c-6,3-30,2-55-2c-41-7-60-6-49,4c2,1,44,22,92,45
		c71,35,100,43,152,45c35,1,62-1,59-5c-9-15,46-21,76-9c21,9,30,19,30,35c0,32-19,44-86,56c-33,6-69,15-82,20c-22,9-22,9-6,46
		c41,95,41,93,15,114C3047,1013.5,3011,1008.5,2946,967.5z"/>
	<path d="M8020,988.5c0-8-4-13-9-10s-11-3-14-14c-7-26-71-53-107-45c-44,10-43-9,1-49c36-32,40-39,34-68c-10-44-11-45-55-68
		c-34-18-40-18-54-5c-13,13-16,13-29-6c-22-31-9-59,37-78l40-18l-42-41c-24-23-46-43-50-43c-45-8-52-5-53,20l-1,26l-7-25
		c-4-14-15-26-24-28c-31-6-18,30,47,126c30,45,34,56,23,73c-23,36-60,25-115-35c-82-90-102-107-119-104c-14,3-17,12-16,38l3,35
		l-21-38c-11-22-19-52-17-70c3-30,6-32,46-35c24-2,49,2,57,8c18,15,31-6,15-24c-6-8-8-26-4-41c4-18,2-30-7-37c-10-7-11-11-2-14
		c7-3,10-11,7-19c-3-7,0-23,6-35c8-15,8-20,1-16c-15,10-14-8,3-49c22-53,67-70,87-34c16,31,59,190,49,184c-5-3-13,3-19,13
		c-11,21-10,21,67,7c47-8,56-32,25-63c-15-16-15-17,0-20c9-2,14-9,10-18c-9-25,7-83,29-104c29-27,52-25,66,4c9,19,7,32-9,62
		c-10,21-19,44-19,52c0,30,112,102,160,102c18,0,18-3,7-27c-6-16-17-32-24-38c-7-5-16-41-21-78c-10-81-5-87,83-87
		c89,0,124,30,104,89c-9,26-18,32-50,37c-42,7-48,19-24,50c15,20,20,70,9,98c-7,18-72,22-102,7c-9-5-39-20-67-34c-27-14-54-35-60-46
		c-16-35-24-24-13,19c6,22,13,40,17,40c3,0,19,12,36,27c16,15,38,29,49,30c12,2,31,8,42,14c15,8,27,8,40,1c19-10,122,2,135,16
		c4,4,9,19,13,35c5,22,2,29-15,36c-22,8-76,1-112-14c-18-7-17-5,2,33c12,24,21,60,21,86c0,42-2,45-35,57c-19,7-35,15-35,19
		c0,3,9,19,20,35c27,40,26,80-2,99C8030,1008.5,8020,1008.5,8020,988.5z"/>
	<path d="M11018,990.5c-25-18-22-26,8-26c14,0,23-4,20-9c-4-5,0-11,6-14c16-5-23-39-74-64c-42-20-52-57-19-68c22-7,18-35-5-35
		c-8,0-14-7-14-15s-4-15-10-15c-14,0-12-20,5-54c12-23,13-31,3-37c-6-4-16-5-20-3c-4,3-8,0-8-6c0-7-7-10-15-6c-12,4-13,2-6-13
		c6-10,8-21,4-24c-3-4,0-13,7-22c11-14,19-12,66,15c30,16,56,30,59,30c13,0,2-21-30-56c-20-21-35-32-35-23c0,7-8-1-17-19
		c-14-29-14-35-1-48c11-12,21-13,42-4c15,5,32,10,37,10s9-68,9-162c0-90,4-169,8-176c6-8,15,1,30,29c20,36,22,56,22,179
		c0,76,4,149,9,162s25,35,44,48c31,22,33,26,23,52c-12,31-14,32-51,18c-23-9-26-8-23,7c2,11,12,18,25,18c32,1,63,34,63,67
		c0,22-5,28-21,28c-18,0-20,4-14,23c15,47,17,75,5,82c-7,4-18-2-26-14s-22-21-30-21s-14-5-14-10c0-6,11-8,28-4l27,7l-22-22
		c-13-12-23-26-23-31c0-6-11-10-25-10c-18,0-23-4-19-15c4-10,0-15-16-15c-11,0-19-4-16-9c6-10-43-46-51-38c-10,11,29,65,102,142
		c70,74,89,105,65,105c-5,0-9,4-7,9c1,5-8,23-21,40C11078,1006.5,11047,1013.5,11018,990.5z"/>
	<path d="M4774,947.5c-43-74-74-133-74-143c0-5-13-29-30-53c-16-25-30-50-30-56c0-12-56-55-73-56c-7-1-24-5-39-9c-16-5-41-4-59,3
		c-39,14-51,7-38-23c16-33,61-56,112-56c37,0,55,7,92,36c26,19,48,34,50,32c1-2,10-18,19-36c14-26,21-32,38-26c16,5,20,3,15-9
		c-3-9,0-14,11-13c9,0,18-7,20-17c2-11-1-17-10-15c-7,1-26-6-41-17c-24-15-30-16-38-4s-10,12-19-1s-10-13-10,0c-1,8-7,0-16-19
		c-14-32-13-36,8-58c23-25,66-30,99-13c15,9,19,7,19-7c-1-35-37-62-90-68c-8-1-33-5-55-10c-37-8-38-9-15-16c22-6,19-7-15-9
		c-22-2-55-2-74-1c-49,4-36-18,30-51c57-28,143-37,179-18c11,6,53,17,93,26c66,13,82,13,133,1c33-8,73-21,90-27c46-19,84-6,84,28
		c0,15-6,34-12,40c-7,7-13,18-13,24c0,16-72,51-87,42c-20-13-88-16-88-5c0,6-5,11-11,11c-5,0-7-5-3-12c5-8,2-9-12-4c-10,5-25,9-31,9
		c-20,1-16,88,4,117c9,14,23,30,29,35c7,6,16,22,19,37c5,20,2,29-14,38c-12,6-21,7-21,3s-5-1-10,9c-7,10-17,14-31,11
		c-33-9-19,17,21,38c55,30,67,46,52,70c-7,11-10,25-6,31s-1,17-10,24c-15,10-21,10-37-4c-10-9-19-22-19-29c0-17-20-17-21,0
		c0,6-5,1-10-13c-7-17-12-21-18-12c-5,9-14,5-31-13c-18-19-26-22-32-13c-6,10-8,10-8,1c0-7-4-13-10-13c-16,0-12,19,24,94
		c32,70,60,96,103,96c9,0,61-44,117-98c120-118,140-132,183-132c50,0,112,22,111,40c0,8,3,23,7,33c6,14,2,20-14,24
		c-11,3-18,10-14,16c4,7,0,8-13,3c-10-5-38-11-61-13c-50-7-67,3-169,93c-74,67-106,84-156,84c-28,0-30,2-26,28c3,15,9,35,13,45
		c5,13,2,17-13,17C4809,994.5,4793,978.5,4774,947.5z"/>
	<path d="M5985,967.5c-11-3-31-10-45-16s-27-11-30-12s-18-7-35-14c-16-7-54-13-83-14c-36,0-49-3-40-9c8-6,1-7-19-3c-21,4-33,3-33-4
		c0-6-6-11-14-11c-7,0-37-26-65-57c-57-64-69-96-23-64c15,11,47,25,72,32s38,14,29,16s-19,17-21,32c-4,26-2,28,40,30
		c34,2,50-3,68-20c20-19,31-21,73-16c28,3,63,13,80,21c25,13,35,14,68,2c35-12,39-17,50-67c7-30,12-88,11-131c-3-68-5-75-20-67
		c-19,10-82,10-115,1c-21-7-21-7-3-44c10-20,16-39,13-42c-3-2,13-16,36-30c32-20,45-24,64-17c23,9,25,7,32-37c8-55,8-98,0-130
		c-5-21-10-23-38-16c-18,4-46,8-63,9c-41,2-61,14-43,26c10,6,4,9-16,9c-17,0-35,4-41,10c-10,10-56,4-189-24c-68-15-86-8-84,33
		c0,14-2,49-6,76c-6,42-4,54,14,74c16,18,21,37,21,81c0,74-10,122-24,117c-13-4-15-12-52-167c-15-63-38-135-51-159
		c-26-48-24-91,4-123c20-23,79-34,97-19c11,10,21,9,43-2c56-28,81-29,131-3c26,13,70,28,97,34c28,5,58,12,68,17c13,6,20-1,33-30
		c32-76,120-137,174-120c27,9,50,55,50,103c0,39-32,155-49,176c-5,6-8,27-7,46s-2,40-7,47c-17,23-17,243-1,340c8,51,12,98,8,104
		C6126,964.5,6042,981.5,5985,967.5z"/>
	<path d="M7638,956.5c-10-11-7-18,15-34c24-18,25-21,12-41c-14-22-13-22,50-22c75,0,102,17,91,59c-8,33-28,42-99,48
		C7665,969.5,7647,967.5,7638,956.5z"/>
	<path d="M11577,967.5c-14-13-7-32,14-38l21-7l-23-24l-22-23l32,9c26,7,38,5,68-16c20-13,41-24,47-24c21,0,36,23,36,55
		c0,36-7,48-37,64C11690,975.5,11588,978.5,11577,967.5z"/>
	<path d="M8900,950.5c0-8-14-17-30-21c-17-4-44-13-60-21c-16-9-41-17-55-18c-14-2-31-11-39-21c-7-10-24-20-37-22s-33-5-44-7
		c-11-3-26-5-32-5c-7-1-13-9-13-18c0-12-18-26-50-40c-54-23-60-38-37-86c13-30,22-33,34-13c8,12,45,36,57,36c13,0,5-28-10-34
		c-8-3-12-11-9-16c4-6,0-22-9-35c-10-16-12-25-4-27c6-2,8-13,4-26c-8-26-24-30-22-6c0,10-8,18-21,20c-25,4-29-7-13-36
		c6-11,15-54,20-96c10-77,37-149,54-145c5,2,12-2,15-7c4-6,15-3,29,8c22,19,23,20,7,68c-9,27-15,71-13,98l3,49l45-3
		c138-7,160-11,160-32c0-4-26-14-57-22l-58-14l46-22c25-12,58-22,73-22c32,0,85,27,104,52c46,61,62,61,104,1c28-41,33-57,33-105
		c0-55-13-75-30-47c-4,6-13,8-19,6c-7-3-21,8-30,24s-22,29-27,29c-6,0,0-17,12-37c20-32,20-36,4-23s-18,13-9,0
		c61-99,110-138,158-126c30,7,33,26,23,136c-6,65-4,433,3,574c1,10-9,29-21,42c-18,19-33,24-70,24c-26,0-51-4-54-10
		c-3-5-15-10-26-10c-10,0-19,5-19,10c0,6-16,10-35,10C8911,964.5,8900,959.5,8900,950.5z M9053,882.5c13-11,16-35,17-138
		c2-183,5-170-31-170c-27,0-30,3-24,23c4,12,13,35,21,51c16,34,11,61-18,93c-20,21-54,21-41-1c3-6,3-8-2-4c-9,8-45-9-45-21
		c0-5,12-6,27-3c24,4,25,3,20-19c-4-13-7-29-7-35c0-7-10-14-22-18c-20-5-21-8-8-17c12-8,8-9-15-4c-16,3-43,15-59,27s-36,21-43,21
		s-11,3-8,5c3,3-5,10-18,17c-12,6-21,16-20,22c1,5-5,10-13,10c-16,0-19-13-4-22c6-3,6-15,0-29c-5-13-6-27-3-30c4-3-1-6-11-6
		c-9,0-14-4-11-10c11-18-25-11-53,10c-26,20-28,24-22,77c5,43,12,60,31,74c13,11,29,23,35,28C8791,866.5,9012,913.5,9053,882.5z"/>
	<path d="M12853,864.5c-60-21-108-53-123-81c-15-27-26-24-40,11c-13,31-30,40-30,17c0-40,42-165,68-201c16-22,31-45,32-50
		c2-12-111-86-132-86c-14,0-18,9-18,40v40h-40c-44,0-50-11-24-48c10-15,14-35,10-60c-4-30,0-42,21-64l25-26l-31-17
		c-18-9-29-20-26-25s0-12-6-16c-8-4-9-3-5,4c17,27-11,9-31-20c-33-47-9-56,58-23c50,26,100,28,114,4c4-5,16-9,27-9
		c12,0,77-23,146-51l126-51l85,8c48,5,92,8,99,7c6,0,12,8,12,18c0,11-5,19-11,19c-8,0-8,4,0,14c9,11,6,13-16,9c-23-3-24-2-8,5
		c16,8,15,10-14,15c-19,4-70,10-115,13c-79,5-156,26-246,67c-28,12-39,22-30,25c8,2,21,10,29,16c11,8,13,8,8,0c-4-7,0-17,8-24
		c22-18,80-4,119,31c20,17,40,27,49,23c9-3,29,2,46,12c29,17,30,17,82-18c63-42,85-40,91,8c5,42,3,45-50,78l-42,26l15,38
		c9,20,29,57,44,82c16,25,31,64,34,88c5,45,3,47-55,43l-26-2l5,60c3,34,2,62-3,62c-36,6-92,4-88-3c3-4,0-8-6-8s-8-4-5-10
		c3-5-1-10-9-10c-9,0-16,9-16,20C12960,890.5,12924,890.5,12853,864.5z M13026,807.5c10-15,10-21-3-35c-10-12-12-18-4-18
		c7,0,4-14-9-40c-20-39-35-55-24-25c4,9,0,15-10,15c-9,0-16-8-16-17s-7-25-17-35c-15-17-15-19,7-38c30-26,35-25,79,8
		c52,41,57,43,58,22c1-11-9-29-22-42c-14-13-25-33-25-45c0-13-5-23-11-23c-5,0-7,6-3,13c5,8,2,8-9-2c-18-15-23-26-7-16
		c6,3,10,1,10-6c0-8-14-9-47-4c-62,9-71,15-43,30c20,11,20,13,5,19c-14,5-15,9-5,21s9,15-7,15c-30,0-33,8-18,58c8,26,19,66,25,89
		c7,30,19,47,38,57C13003,828.5,13010,827.5,13026,807.5z"/>
	<path d="M13574,862.5c-4-6,4-20,19-33c15-11,27-23,27-27c0-3-31-28-69-57c-122-91-170-165-122-191c25-13,88-13,96,0
		c17,27,23,1,20-87c-5-115,6-171,36-196c55-44,99,12,97,124c-1,87-9,100-36,57l-22-33v55c0,65,28,131,64,155c48,32,27,75-37,75
		c-27,0-58-12-106-40c-37-22-73-40-79-40c-41,0,33,81,105,115c28,14,50,16,109,10c73-7,74-6,86,20c10,23,9,29-13,51
		c-14,14-50,31-80,39C13603,877.5,13583,878.5,13574,862.5z"/>
	<path d="M2542,811.5l-14-59l-27,26c-32,31-47,33-56,6c-14-45,48-161,103-191c48-27,97,33,62,76c-16,19-46,120-52,175
		C2556,861.5,2551,850.5,2542,811.5z"/>
	<path d="M10700,796.5c-22-18-20-50,2-36c6,4,6-2-1-15c-7-11-15-21-19-21s-34-25-67-55c-32-30-62-55-66-55c-10,0-18-50-9-55
		c4-2,30,7,59,20c61,30,56,29,58,8c1-10-16-30-37-45c-40-29-56-35-45-18c3,5,0,7-9,4c-22-8-46-50-46-79c0-21,5-25,28-25
		c15,0,42,9,61,21c42,25,49,19,23-19c-19-26-112-72-146-72c-6,0-12-9-13-19c-1-15,7-20,35-23c59-7,104,8,139,46c31,33,53,89,53,133
		c0,14,17,34,51,59c49,36,51,38,30,47c-11,6-21,14-21,19c0,14,16,9,33-10c14-15,16-32,11-98c-5-60-3-83,9-98c17-23,40-17,61,16
		c17,27,34,162,17,138c-9-13-11-12-11,5c0,12-5,26-11,32c-8,8-8,17,0,31c6,11,11,41,11,66c0,41-3,46-22,46c-12,0-32-10-45-22
		s-23-17-23-11s-10,13-22,16c-20,6-20,7-4,32c10,15,15,29,12,33c-3,3-6,2-6-2s-7,0-16,8C10734,818.5,10727,818.5,10700,796.5z"/>
	<path d="M5785,774.5c-16-16-38-33-49-36c-11-4-26-13-34-20c-11-12-10-14,7-14c23,0,26-15,11-56c-8-21-7-31,6-45c16-18,16-19-3-19
		c-10,0-28-7-39-16c-18-15-18-15,4-10c12,4,32,9,43,12c14,4,19,2,15-5s1-11,13-11c25,0,27-13,6-30c-11-9-22-9-50,0c-19,6-43,10-52,7
		c-10-2,1-8,27-14c27-7,36-11,21-12c-20-1-21-3-11-16s6-21-28-53c-25-23-40-44-38-56c3-25,78-50,125-42c105,17,175,36,188,49
		c20,20,5,68-27,84c-20,10-28,8-53-13c-34-28-68-34-46-8c7,9,23,20,36,25s23,17,23,28s4,22,9,25c5,4,6,18,2,33c-6,21-17,30-44,38
		c-44,12-82,47-74,68c3,8,19,18,36,22s31,10,31,14s18,13,40,20c22,6,40,16,40,21c0,4,3,15,6,23c4,11-5,17-38,22c-24,3-50,8-59,11
		C5821,802.5,5801,791.5,5785,774.5z"/>
	<path d="M4060,534.5c34-30,40-40,26-40c-16,0-17-2-5-17c13-17,13-17-7,0c-25,21-34,22-34,2c0-8,6-15,14-15c8,0,29-14,47-31
		s49-36,70-43c31-11,40-11,58,3s20,23,15,61c-9,70-31,90-100,91c-32,1-74,8-94,16l-35,13L4060,534.5z"/>
	<path d="M10017,528.5c-4-4-15-8-25-9c-9-1-46-15-82-32c-52-25-69-39-83-67c-22-46-21-53,1-34c48,43,172,85,172,59c0-5,3-16,6-24
		s-2-22-11-31s-14-23-11-31s1-17-4-20c-6-4-10,1-10,9c0,10-6,13-15,10c-8-4-12-11-9-16c4-6,1-14-7-18c-11-7-11-13,0-34
		c8-13,11-31,8-39c-7-19,53-47,103-47c52,0,85,30,75,68c-10,39-24,52-56,52c-35,0-35,1-6,48c41,66,46,84,33,122c-9,29-17,36-41,38
		C10038,534.5,10021,532.5,10017,528.5z"/>
	<path d="M2873,298.5c25-18,34-31,28-37c-10-10,22-47,40-47c4,0,21-12,38-26s51-32,75-39l44-14l16,34c20,42,21,99,1,119
		c-15,15-89,26-160,24c-22-1-58,2-80,6l-40,8L2873,298.5z"/>
	<path d="M14876,259.5c4-8,13-15,22-15c13,0,12-3-4-15c-17-13-17-14-2-15c10,0,25-9,35-19c27-28,125-69,147-61c40,14,40,72,0,115
		c-21,23-30,25-113,25C14885,274.5,14872,272.5,14876,259.5z"/>
</g>
<g>
	
		<image style="overflow:visible;" width="512" height="512" xlink:href="hci-logo.png"  transform="matrix(0.1943 0 0 0.1943 14.9837 0)">
	</image>
</g>
</svg>
